Coordinates
version=1
nRows=10
nColumns=34
inDegrees=yes

Units are S.I. units (second, meters, Newtons, ...)
If the header above contains a line with 'inDegrees', this indicates whether rotational values are in degrees (yes) or radians (no).

endheader
time	pelvis_tilt	pelvis_list	pelvis_rotation	pelvis_tx	pelvis_ty	pelvis_tz	hip_flexion_r	hip_adduction_r	hip_rotation_r	knee_angle_r	ankle_angle_r	subtalar_angle_r	mtp_angle_r	hip_flexion_l	hip_adduction_l	hip_rotation_l	knee_angle_l	ankle_angle_l	subtalar_angle_l	mtp_angle_l	lumbar_extension	lumbar_bending	lumbar_rotation	arm_flex_r	arm_add_r	arm_rot_r	elbow_flex_r	pro_sup_r	arm_flex_l	arm_add_l	arm_rot_l	elbow_flex_l	pro_sup_l
      0.00000000	     -3.27445492	      0.35234602	     -4.62577591	      0.48635877	      0.90365313	     -0.13072397	     20.16626169	     -2.01666544	     -7.34992790	     18.60588189	     -5.13717955	    -17.35618615	      0.00000000	     20.78903222	     -2.45989463	     -6.15612584	     21.00432222	      0.86194323	     -2.99276883	      0.00000000	    -24.37599724	     -1.95874510	      2.93212464	     40.07941579	     21.05624158	     67.94984171	    128.61413041	    119.74817918	     47.43078413	     18.59569596	     62.91109912	    126.62626563	    119.74817918
      0.01666670	     -3.60916874	      0.74722432	     -3.63298683	      0.48513291	      0.90697931	     -0.13051278	     22.06059560	     -2.39005368	     -5.07026793	     21.47292214	     -3.03787676	    -20.32235047	      0.00000000	     22.81493673	     -1.26499932	     -3.83626611	     24.26088495	      1.83660726	     -5.75575758	      0.00000000	    -24.48532423	     -2.21861856	      2.07979758	     42.48837989	     22.19300759	     69.15224795	    129.08863528	    119.74817918	     50.43027887	     19.62495688	     64.63545886	    125.66845102	    119.69668484
      0.03333330	     -4.35275672	      1.16445377	     -3.67801250	      0.48675613	      0.90757357	     -0.12992023	     22.63435028	     -2.54428465	     -5.33262410	     21.26089103	     -3.96547435	    -22.22833505	      0.00000000	     23.64985533	     -0.93961450	     -2.88558205	     24.45094734	      0.65572472	     -7.73449915	      0.00000000	    -23.69775333	     -2.72258060	      2.61155985	     42.31820499	     22.33351100	     70.86420011	    128.91770912	    119.74817918	     50.87876389	     20.00216441	     66.50255823	    125.14827459	    119.58406332
      0.05000000	     -4.35084045	      1.10267747	     -3.43516986	      0.48280139	      0.90609092	     -0.12980703	     22.83017896	     -2.45615698	     -5.13245097	     21.56863827	     -4.67357021	    -23.66935130	      0.00000000	     23.89163832	     -0.84853769	     -1.69204156	     24.99864541	      0.75693387	     -8.60781719	      0.00000000	    -23.75029996	     -2.63970685	      2.94264657	     42.47269257	     22.13868933	     71.14748123	    128.65216786	    119.74817918	     52.27426398	     20.16903240	     67.11726842	    124.43738571	    119.23168126
      0.06666670	     -4.54600564	      0.88113409	     -3.17560376	      0.48496272	      0.90611206	     -0.12973003	     22.84622222	     -2.15530922	     -4.69879320	     21.63271306	     -5.36697760	    -25.03031124	      0.00000000	     24.37184775	     -0.84040800	     -0.48572895	     25.90728868	      1.19485571	     -9.18824224	      0.00000000	    -23.63476982	     -2.12083899	      3.72958866	     42.23709297	     21.71345916	     71.95096121	    128.22640149	    119.74817918	     52.81627834	     20.61375386	     68.55567495	    123.93225750	    118.72147591
      0.08333330	     -4.76928372	      0.68212346	     -3.01616947	      0.48502042	      0.90426949	     -0.13072670	     23.31851711	     -1.87870054	     -4.26621900	     22.06387657	     -6.33487902	    -27.01693828	      0.00000000	     25.14442473	     -0.92342771	      0.45123018	     27.31024754	      1.99205085	     -8.89042071	      0.00000000	    -23.34445164	     -1.79491655	      4.24202919	     42.23114635	     21.53109666	     72.95685074	    128.04388227	    119.74817918	     53.22100559	     21.10092595	     69.50139015	    123.37032832	    117.85219282
      0.10000000	     -4.87618701	      0.53185605	     -2.81739989	      0.48426674	      0.90613598	     -0.13196575	     23.39150130	     -1.72568320	     -3.88522932	     21.80164495	     -7.54357901	    -28.85835407	      0.00000000	     25.50160882	     -0.90565309	      1.40193279	     27.97648002	      2.55515311	     -8.65080015	      0.00000000	    -23.32818802	     -1.51766242	      4.83255782	     41.94056540	     21.04977743	     72.83987862	    127.98576711	    119.56701322	     53.30964725	     21.49717577	     70.18995030	    123.30812532	    116.67477370
      0.11666670	     -4.77451824	      0.55476686	     -2.74516300	      0.48767134	      0.90625658	     -0.13194727	     22.96388850	     -1.75809693	     -3.85578510	     21.34846680	     -8.16118389	    -29.48745098	      0.00000000	     25.45500336	     -0.85872783	      1.96983555	     28.54410783	      3.00750124	     -8.57066003	      0.00000000	    -23.16485055	     -1.68597721	      4.79785587	     41.66511830	     21.00059234	     73.40782198	    127.89362828	    119.43911413	     52.83285822	     21.41671703	     70.26378264	    123.07399136	    115.94766774
      0.13333330	     -4.69263249	      0.43618387	     -2.82739028	      0.48806277	      0.90796421	     -0.13371415	     22.74048764	     -1.60317135	     -3.49636087	     20.64538719	     -9.56392098	    -30.86920378	      0.00000000	     25.40217553	     -1.01399436	      2.53548023	     28.90857598	      3.43628510	     -8.00650270	      0.00000000	    -23.14886203	     -1.65795136	      5.04907831	     41.07040214	     20.91053773	     73.96497731	    127.79668690	    119.11065716	     52.56746763	     21.37585141	     70.09137769	    123.38717654	    114.33930002
      0.15000000	     -4.45571770	      0.49231320	     -2.94220399	      0.48680220	      0.90691506	     -0.13539751	     22.38599770	     -1.65107983	     -3.20857479	     19.93441209	    -11.13546029	    -32.17515493	      0.00000000	     24.79816120	     -0.96485149	      3.03214404	     28.06807239	      2.88988450	     -8.42069287	      0.00000000	    -23.29940020	     -1.90267319	      5.07169495	     40.79933918	     20.95906373	     74.12970970	    127.76672338	    118.02576828	     52.81705412	     21.27921570	     70.17889905	    123.40623037	    108.98576950
